<?xml version="1.0" encoding="utf-8"?>
<!-- Generator: Adobe Illustrator 23.1.0, SVG Export Plug-In . SVG Version: 6.00 Build 0)  -->
<svg version="1.1" id="Слой_1" xmlns="http://www.w3.org/2000/svg" xmlns:xlink="http://www.w3.org/1999/xlink" x="0px" y="0px"
	 viewBox="0 0 16.6 18.1" style="enable-background:new 0 0 16.6 18.1;" xml:space="preserve">
<style type="text/css">
	.st0{fill:#FFFFFF;}
</style>
<path class="st0" d="M3.4,5.3L3.4,5.3L3.3,6.1v0.7v6c0,0.6,0.5,1.1,1.1,1.1h0.8c0,0.1,0,0.2,0,0.3v0.1v0.3v1.8c0,0.6,0.5,1,1,1
	c0.6,0,1-0.5,1-1v-1.8v-0.3v-0.1c0-0.1,0-0.2,0-0.3H9c0,0.1,0,0.2,0,0.3v0.1v0.3v1.8c0,0.6,0.5,1,1,1c0.6,0,1-0.5,1-1v-1.8v-0.3
	v-0.1c0-0.1,0-0.2,0-0.3h0.8c0.6,0,1.1-0.5,1.1-1.1v-6V6.1V5.3h-0.1H3.4z"/>
<path class="st0" d="M2,5c-0.6,0-1,0.5-1,1v4.4c0,0.6,0.5,1,1,1c0.6,0,1-0.5,1-1V6.1C3.1,5.5,2.6,5,2,5z"/>
<path class="st0" d="M14.1,4.9c-0.6,0-1,0.5-1,1v4.4c0,0.6,0.5,1,1,1c0.6,0,1-0.5,1-1V6C15.2,5.4,14.7,4.9,14.1,4.9z"/>
<path class="st0" d="M10.5,1.6l0.2-0.3L10.9,1l0.4-0.6c0.1-0.1,0-0.2,0-0.2c-0.1-0.1-0.2,0-0.2,0l-0.5,0.7l-0.2,0.3l-0.2,0.3
	c-0.6-0.2-1.3-0.4-2-0.4c-0.7,0-1.4,0.1-2,0.4L5.9,1.1L5.7,0.9L5.3,0.2C5.2,0.1,5.1,0.1,5,0.1C5,0.2,4.9,0.3,5,0.4L5.4,1l0.2,0.3
	l0.2,0.3C4.4,2.2,3.4,3.5,3.4,5h9.6C12.9,3.5,12,2.2,10.5,1.6z M6.1,3.6c-0.3,0-0.5-0.2-0.5-0.5s0.2-0.5,0.5-0.5
	c0.3,0,0.5,0.2,0.5,0.5S6.4,3.6,6.1,3.6z M10.2,3.6c-0.3,0-0.5-0.2-0.5-0.5s0.2-0.5,0.5-0.5c0.3,0,0.5,0.2,0.5,0.5
	S10.5,3.6,10.2,3.6z"/>
</svg>
