<?xml version="1.0" encoding="utf-8"?>
<!-- Generator: Adobe Illustrator 23.1.0, SVG Export Plug-In . SVG Version: 6.00 Build 0)  -->
<svg version="1.1" id="Слой_1" xmlns="http://www.w3.org/2000/svg" xmlns:xlink="http://www.w3.org/1999/xlink" x="0px" y="0px"
	 viewBox="0 0 15.8 18.4" style="enable-background:new 0 0 15.8 18.4;" xml:space="preserve">
<style type="text/css">
	.st0{fill:#FFFFFF;}
</style>
<path class="st0" d="M12.6,9.6c0-2.2,1.8-3.3,1.9-3.3c-1-1.5-2.6-1.7-3.2-1.7C10,4.4,8.7,5.4,8,5.4c-0.7,0-1.7-0.8-2.9-0.8
	c-1.5,0-2.8,0.9-3.6,2.2C0,9.4,1.2,13.4,2.6,15.5c0.7,1.1,1.6,2.2,2.7,2.2c1.1,0,1.5-0.7,2.8-0.7c1.3,0,1.7,0.7,2.9,0.7
	c1.2,0,1.9-1.1,2.7-2.1c0.8-1.2,1.2-2.4,1.2-2.5C14.9,13.1,12.7,12.2,12.6,9.6z"/>
<path class="st0" d="M10,3.6c0.6-0.7,1-1.8,0.9-2.8C10,0.9,9,1.4,8.3,2.1C7.8,2.8,7.3,3.8,7.4,4.8C8.4,4.9,9.4,4.3,10,3.6z"/>
</svg>
