<?xml version="1.0" encoding="utf-8"?>
<!-- Generator: Adobe Illustrator 23.1.0, SVG Export Plug-In . SVG Version: 6.00 Build 0)  -->
<svg version="1.1" id="Слой_1" xmlns="http://www.w3.org/2000/svg" xmlns:xlink="http://www.w3.org/1999/xlink" x="0px" y="0px"
	 viewBox="0 0 31 31" style="enable-background:new 0 0 31 31;" xml:space="preserve">
<style type="text/css">
	.st0{fill:#4D4D4D;}
</style>
<path class="st0" d="M15.5,2c7.6,0,13.6,6,13.6,13.6c0,7.6-6,13.6-13.6,13.6C8,29.1,2,23.1,2,15.6C2,8,8,2,15.5,2z M15.5,0.1
	C7,0.1,0,7.1,0,15.6s7,15.5,15.5,15.5S31,24.1,31,15.6S24,0.1,15.5,0.1z"/>
<path class="st0" d="M13.7,13.5h3.9v3.9h-3.9V13.5z"/>
<path class="st0" d="M7.7,13.5h3.9v3.9H7.7V13.5z"/>
<path class="st0" d="M19.4,13.5h3.9v3.9h-3.9V13.5z"/>
</svg>
