<?xml version="1.0" encoding="utf-8"?>
<!-- Generator: Adobe Illustrator 23.0.1, SVG Export Plug-In . SVG Version: 6.00 Build 0)  -->
<svg version="1.1" id="Слой_1" xmlns="http://www.w3.org/2000/svg" xmlns:xlink="http://www.w3.org/1999/xlink" x="0px" y="0px"
	 viewBox="0 0 12 16" style="enable-background:new 0 0 12 16;" xml:space="preserve">
<style type="text/css">
	.st0{fill:#FFFFFF;}
</style>
<path class="st0" d="M12,10.3c0,3.1-2.7,5.7-6,5.7s-6-2.6-6-5.7C0,6.9,3.9,1.9,5.4,0.1C5.5,0,5.5,0,5.6,0c0.1,0,0.1,0,0.2,0
	c0.1,0,0.1,0.1,0.1,0.1s0,0.1,0,0.2C5.8,1.7,5.8,5,8.5,6.6c0.1,0,0.1,0.1,0.2,0c0.1,0,0.1,0,0.2-0.1C9.2,6,9.4,5.4,9.4,4.8
	c0-0.1,0-0.1,0.1-0.1c0,0,0.1-0.1,0.1-0.1c0.1,0,0.1,0,0.2,0c0,0,0.1,0.1,0.1,0.1C11.1,6.6,12,8.7,12,10.3z"/>
<path d="M2.4,12.4c0,2,1.7,3.6,3.8,3.6s3.8-1.6,3.8-3.6S7.7,7.6,6.7,6.3c0,0-0.1-0.1-0.1-0.1c-0.1,0-0.1,0-0.2,0
	c-0.1,0-0.1,0.1-0.1,0.1c0,0,0,0.1,0,0.2c0,1-0.1,2.7-1.6,3.6c0,0-0.1,0-0.1,0c0,0-0.1,0-0.1,0c0,0-0.1,0-0.1,0c0,0-0.1,0-0.1-0.1
	C4.2,9.8,4.1,9.5,4,9.3C4,9.2,4,9.2,4,9.1c0,0-0.1-0.1-0.1-0.1c-0.1,0-0.1,0-0.2,0c0,0-0.1,0.1-0.1,0.1C2.9,10.3,2.4,11.5,2.4,12.4z
	"/>
<path class="st0" d="M8.4,14c0,0.3-0.1,0.5-0.2,0.8c-0.1,0.2-0.3,0.5-0.5,0.6c-0.2,0.2-0.4,0.3-0.7,0.4C6.8,16,6.6,16,6.3,16
	c-0.3,0-0.5,0-0.8-0.1c-0.2-0.1-0.5-0.2-0.7-0.4c-0.2-0.2-0.3-0.4-0.5-0.6c-0.1-0.2-0.2-0.5-0.2-0.8c0-1,1-2.3,1.6-3.1
	c0,0,0.1-0.1,0.1-0.1c0,0,0.1,0,0.2,0c0.1,0,0.1,0,0.1,0.1c0,0,0.1,0.1,0.1,0.1c0,0.3,0.1,0.6,0.2,0.9c0.1,0.3,0.3,0.5,0.6,0.7
	c0,0,0.1,0,0.1,0.1c0,0,0.1,0,0.1,0s0.1,0,0.1-0.1c0,0,0.1-0.1,0.1-0.1c0,0,0-0.1,0.1-0.1c0,0,0.1,0,0.1-0.1c0,0,0.1,0,0.1,0
	s0.1,0.1,0.1,0.1C8.1,13,8.3,13.5,8.4,14z"/>
</svg>
