<?xml version="1.0" encoding="utf-8"?>
<!-- Generator: Adobe Illustrator 23.0.1, SVG Export Plug-In . SVG Version: 6.00 Build 0)  -->
<svg version="1.1" id="Слой_1" focusable="false"
	 xmlns="http://www.w3.org/2000/svg" xmlns:xlink="http://www.w3.org/1999/xlink" x="0px" y="0px" viewBox="0 0 496 496"
	 style="enable-background:new 0 0 496 496;" xml:space="preserve">
<path d="M336.5,152C322,62.7,287.8,0,248,0s-74,62.7-88.5,152H336.5z M152,248c0,22.2,1.2,43.5,3.3,64h185.3
	c2.1-20.5,3.3-41.8,3.3-64s-1.2-43.5-3.3-64H155.3C153.2,204.5,152,225.8,152,248z M476.7,152c-28.6-67.9-86.5-120.4-158-141.6
	c24.4,33.8,41.2,84.7,50,141.6H476.7z M177.2,10.4C105.8,31.6,47.8,84.1,19.3,152h108C136,95.1,152.8,44.2,177.2,10.4L177.2,10.4z
	 M487.4,184H372.7c2.1,21,3.3,42.5,3.3,64s-1.2,43-3.3,64h114.6c5.5-20.5,8.6-41.8,8.6-64S492.8,204.5,487.4,184L487.4,184z
	 M120,248c0-21.5,1.2-43,3.3-64H8.6C3.2,204.5,0,225.8,0,248s3.2,43.5,8.6,64h114.6C121.2,291,120,269.5,120,248z M159.5,344
	c14.5,89.3,48.7,152,88.5,152s74-62.7,88.5-152H159.5z M318.8,485.6c71.4-21.2,129.4-73.7,158-141.6h-108
	C360,400.9,343.2,451.8,318.8,485.6z M19.3,344c28.6,67.9,86.5,120.4,158,141.6c-24.4-33.8-41.2-84.7-50-141.6
	C127.3,344,19.3,344,19.3,344z"/>
</svg>
