<?xml version="1.0" encoding="utf-8"?>
<!-- Generator: Adobe Illustrator 23.0.1, SVG Export Plug-In . SVG Version: 6.00 Build 0)  -->
<svg version="1.1" id="Слой_1" xmlns="http://www.w3.org/2000/svg" xmlns:xlink="http://www.w3.org/1999/xlink" x="0px" y="0px"
	 viewBox="0 0 31 28" style="enable-background:new 0 0 31 28;" xml:space="preserve">
<style type="text/css">
	.st0{fill:#333333;stroke:#FFFFFF;stroke-width:0.2;}
	.st1{fill:#FFFFFF;}
</style>
<path class="st0" d="M28.1,3L28.1,3c0.9,0.8,1.6,1.8,2.1,2.9c0.5,1.1,0.7,2.3,0.7,3.4v0c0,1.2-0.2,2.5-0.7,3.6
	c-0.5,1.1-1.2,2.2-2.1,3l0,0L16.6,27l0,0c-0.1,0.1-0.3,0.3-0.5,0.3c-0.2,0.1-0.4,0.1-0.6,0.1c-0.2,0-0.4,0-0.6-0.1
	c-0.2-0.1-0.4-0.2-0.5-0.3l0,0L2.9,16l0,0c-0.9-0.9-1.6-1.9-2.1-3c-0.5-1.1-0.7-2.4-0.7-3.6l0,0c0-1.2,0.3-2.4,0.7-3.4
	C1.3,4.8,2,3.8,2.9,3h0c2-1.9,5.2-2.8,8-2.4c2,0.3,3.6,1.3,4.5,2.8l0.1,0.1l0.1-0.1c1-1.5,2.6-2.5,4.6-2.8l0,0
	C23,0.2,26.1,1.2,28.1,3z"/>
<path class="st1" d="M26.4,4.7L26.4,4.7c0.8,0.7,1.4,1.5,1.8,2.4C28.6,8,28.8,9,28.8,10v0c0,1-0.2,2.1-0.6,3c-0.4,1-1,1.8-1.8,2.6
	l0,0L16.5,25l0,0c-0.1,0.1-0.3,0.2-0.4,0.3c-0.2,0.1-0.3,0.1-0.5,0.1c-0.2,0-0.4,0-0.5-0.1c-0.2-0.1-0.3-0.2-0.4-0.3l0,0l-9.9-9.3
	l0,0c-0.8-0.7-1.4-1.6-1.8-2.6c-0.4-1-0.6-2-0.6-3l0,0c0-1,0.2-2,0.6-2.9c0.4-0.9,1-1.7,1.8-2.4h0c1.7-1.6,4.5-2.4,6.9-2
	c1.7,0.3,3.1,1.1,3.9,2.4l0.1,0.1l0.1-0.1c0.8-1.2,2.3-2.1,4-2.3l0,0C22,2.4,24.7,3.1,26.4,4.7z"/>
</svg>
