<svg id="Layer_1" data-name="Layer 1" xmlns="http://www.w3.org/2000/svg" width="26.14" height="26.14" viewBox="0 0 26.14 26.14"><defs><style>.cls-1{fill:#868686;}</style></defs><path class="cls-1" d="M13,26.11A13.08,13.08,0,1,1,26.09,13,13.07,13.07,0,0,1,13,26.11ZM13,1.39A11.65,11.65,0,1,0,24.67,13,11.69,11.69,0,0,0,13,1.39Z" transform="translate(0.05 0.04)"/><path class="cls-1" d="M9,8.85a3.82,3.82,0,0,1,.88-1.47,4,4,0,0,1,1.42-.93,5.13,5.13,0,0,1,1.91-.33,5.2,5.2,0,0,1,1.59.27,5,5,0,0,1,1.31.71A3.16,3.16,0,0,1,17,8.25a3.7,3.7,0,0,1,.32,1.59,3.55,3.55,0,0,1-.49,1.91,7.76,7.76,0,0,1-1.26,1.53l-1,1A2,2,0,0,0,14,15a1.8,1.8,0,0,0-.22.82,6.89,6.89,0,0,0,0,1.15H12.48a4.07,4.07,0,0,1,.11-1.26A4.32,4.32,0,0,1,13,14.54a6.1,6.1,0,0,1,.71-1c.33-.32.66-.65,1.1-1a3.93,3.93,0,0,0,.93-1.15A2.68,2.68,0,0,0,16.09,10a2.38,2.38,0,0,0-.22-1.1,4.48,4.48,0,0,0-.6-.87,1.75,1.75,0,0,0-.93-.55,3.52,3.52,0,0,0-1.09-.22,3.8,3.8,0,0,0-1.43.27,2.5,2.5,0,0,0-1,.77,2.84,2.84,0,0,0-.61,1.15A3.55,3.55,0,0,0,10,10.71H8.76A4.12,4.12,0,0,1,9,8.85Zm3.28,9.57h1.53V20H12.26Z" transform="translate(0.05 0.04)"/></svg>