<svg id="Layer_1" data-name="Layer 1" xmlns="http://www.w3.org/2000/svg" width="27" height="23.57" viewBox="0 0 27 23.57"><defs><style>.cls-1{fill:#868686;}</style></defs><path class="cls-1" d="M27,8.44a.63.63,0,0,0-.09-.33l-4-7.06a.69.69,0,0,0-.58-.34H4.67a.65.65,0,0,0-.57.34l-4,7.06A.63.63,0,0,0,0,8.44,3.86,3.86,0,0,0,2.32,12V23.62a.67.67,0,0,0,.66.67H24a.67.67,0,0,0,.66-.67V12.06a.15.15,0,0,0,0-.07A3.88,3.88,0,0,0,27,8.44ZM5.06,2H21.94l3.13,5.53H1.93ZM19.22,8.88a2.54,2.54,0,0,1-5,0Zm-6.42,0a2.55,2.55,0,0,1-5,0Zm-11.43,0h5a2.54,2.54,0,0,1-5,0ZM11.12,23H7.32V15.82a.93.93,0,0,1,.94-.94h1.92a.94.94,0,0,1,1,.94V23Zm12.23,0H12.45V15.82a2.27,2.27,0,0,0-2.27-2.27H8.25A2.27,2.27,0,0,0,6,15.82V23H3.64V12.3h.23A3.86,3.86,0,0,0,7.08,10.6a3.88,3.88,0,0,0,6.43,0,3.86,3.86,0,0,0,6.41,0,3.86,3.86,0,0,0,3.21,1.71h.22Zm-.22-12a2.55,2.55,0,0,1-2.51-2.1h5A2.56,2.56,0,0,1,23.13,11Z" transform="translate(0 -0.71)"/></svg>