<?xml version="1.0" encoding="utf-8"?>
<!-- Generator: Adobe Illustrator 23.1.0, SVG Export Plug-In . SVG Version: 6.00 Build 0)  -->
<svg version="1.1" id="Слой_1" xmlns="http://www.w3.org/2000/svg" xmlns:xlink="http://www.w3.org/1999/xlink" x="0px" y="0px"
	 viewBox="0 0 18 19" style="enable-background:new 0 0 18 19;" xml:space="preserve">
<style type="text/css">
	.st0{fill:#FFFFFF;}
</style>
<path class="st0" d="M16.3,2.4c-0.9-1-2.2-1.4-3.7-1.4H5.3c-3.1,0-5.1,2-5.1,5.1v7.2c0,1.5,0.5,2.8,1.5,3.8c1,0.9,2.2,1.4,3.7,1.4
	h7.2c1.5,0,2.8-0.5,3.7-1.4c1-0.9,1.4-2.2,1.4-3.7V6.1C17.7,4.6,17.2,3.3,16.3,2.4z M16.1,13.3c0,1.1-0.4,2-1,2.6
	c-0.6,0.6-1.5,0.9-2.6,0.9H5.3c-1.1,0-1.9-0.3-2.6-0.9c-0.6-0.6-1-1.5-1-2.6V6.1c0-1.1,0.3-1.9,1-2.6c0.6-0.6,1.5-0.9,2.6-0.9h7.3
	c1.1,0,1.9,0.3,2.6,1c0.6,0.6,1,1.5,1,2.5V13.3z"/>
<path class="st0" d="M8.8,5.2c-2.5,0-4.5,2-4.5,4.5c0,2.5,2,4.5,4.5,4.5s4.5-2,4.5-4.5C13.4,7.2,11.3,5.2,8.8,5.2z M8.8,12.6
	c-1.6,0-2.9-1.3-2.9-2.9c0-1.6,1.3-2.9,2.9-2.9s2.9,1.3,2.9,2.9C11.7,11.3,10.4,12.6,8.8,12.6z"/>
<path class="st0" d="M13.6,5.9c0.6,0,1-0.5,1-1c0-0.6-0.5-1-1-1c-0.6,0-1,0.5-1,1C12.5,5.4,13,5.9,13.6,5.9z"/>
</svg>
