<?xml version="1.0" encoding="utf-8"?>
<!-- Generator: Adobe Illustrator 23.1.0, SVG Export Plug-In . SVG Version: 6.00 Build 0)  -->
<svg version="1.1" id="Слой_1" xmlns="http://www.w3.org/2000/svg" xmlns:xlink="http://www.w3.org/1999/xlink" x="0px" y="0px"
	 viewBox="0 0 33.7 24.9" style="enable-background:new 0 0 33.7 24.9;" xml:space="preserve">
<path d="M23.5,10H20V9.3c0-0.2-0.2-0.4-0.4-0.4h-5.3c-0.2,0-0.4,0.2-0.4,0.4c0,0.2,0.2,0.4,0.4,0.4h4.9v8.8c0,0.2,0.2,0.4,0.4,0.4
	s0.4-0.2,0.4-0.4v-7.6h3.5c1.9,0,3.4,1.5,3.4,3.4v7h-1.1c-0.2-1.3-1.3-2.2-2.6-2.2s-2.4,1-2.6,2.2H20v-1.5c0-0.2-0.2-0.4-0.4-0.4
	s-0.4,0.2-0.4,0.4v1.5h-4.4c-0.2-1.3-1.3-2.2-2.6-2.2s-2.4,1-2.6,2.2H8.7v-6.1c0-0.2-0.2-0.4-0.4-0.4c-0.2,0-0.4,0.2-0.4,0.4v6.5
	c0,0.2,0.2,0.4,0.4,0.4h1.3c0.2,1.3,1.3,2.2,2.6,2.2s2.4-1,2.6-2.2h6c0.2,1.3,1.3,2.2,2.6,2.2s2.4-1,2.6-2.2h1.5
	c0.2,0,0.4-0.2,0.4-0.4v-7.4C27.8,11.9,25.9,10,23.5,10z M12.1,23.5c-1,0-1.8-0.8-1.8-1.8s0.8-1.8,1.8-1.8s1.8,0.8,1.8,1.8
	C13.9,22.7,13.1,23.5,12.1,23.5z M23.3,23.5c-1,0-1.8-0.8-1.8-1.8c0,0,0,0,0,0s0,0,0,0c0-1,0.8-1.8,1.8-1.8c1,0,1.8,0.8,1.8,1.8
	C25.1,22.7,24.3,23.5,23.3,23.5z"/>
<path d="M25.9,13.9c0-1.4-1.2-2.6-2.6-2.6H21c-0.2,0-0.4,0.2-0.4,0.4v3.9c0,0.2,0.2,0.4,0.4,0.4h4.5c0.2,0,0.4-0.2,0.4-0.4
	L25.9,13.9L25.9,13.9z M21.5,15.2v-3.1h1.9c1,0,1.8,0.8,1.8,1.8v1.3H21.5z"/>
<path d="M23.4,20.6c-0.6,0-1.1,0.5-1.1,1.1c0,0.6,0.5,1.1,1.1,1.1c0.6,0,1.1-0.5,1.1-1.1C24.5,21.1,24,20.6,23.4,20.6z M23.4,21.9
	c-0.1,0-0.2-0.1-0.2-0.2c0-0.1,0.1-0.2,0.2-0.2c0.1,0,0.2,0.1,0.2,0.2C23.6,21.8,23.5,21.9,23.4,21.9z"/>
<path d="M12.1,20.6c-0.6,0-1.1,0.5-1.1,1.1c0,0.6,0.5,1.1,1.1,1.1c0.6,0,1.1-0.5,1.1-1.1C13.2,21.1,12.7,20.6,12.1,20.6z M12.1,21.9
	c-0.1,0-0.2-0.1-0.2-0.2c0-0.1,0.1-0.2,0.2-0.2c0.1,0,0.2,0.1,0.2,0.2C12.4,21.8,12.3,21.9,12.1,21.9z"/>
<path d="M25.5,16.9c-0.2,0-0.4,0.2-0.4,0.4v1.1c0,0.2,0.2,0.4,0.4,0.4c0.2,0,0.4-0.2,0.4-0.4v-1.1C25.9,17.1,25.8,16.9,25.5,16.9z"
	/>
<path d="M10.2,10.5H9.6V8.6c0-0.2-0.2-0.4-0.4-0.4c-0.2,0-0.4,0.2-0.4,0.4v2.3c0,0.2,0.2,0.4,0.4,0.4h1c0.2,0,0.4-0.2,0.4-0.4
	C10.6,10.7,10.4,10.5,10.2,10.5z"/>
<path d="M6.6,17.5H4.8c-0.2,0-0.4,0.2-0.4,0.4c0,0.2,0.2,0.4,0.4,0.4h1.8c0.2,0,0.4-0.2,0.4-0.4C7,17.7,6.8,17.5,6.6,17.5z"/>
<path d="M6.7,14.8H3.2c-0.2,0-0.4,0.2-0.4,0.4c0,0.2,0.2,0.4,0.4,0.4h3.5c0.2,0,0.4-0.2,0.4-0.4C7.2,15,7,14.8,6.7,14.8z"/>
<path d="M6.1,19.8h-3c-0.2,0-0.4,0.2-0.4,0.4s0.2,0.4,0.4,0.4h3c0.2,0,0.4-0.2,0.4-0.4S6.4,19.8,6.1,19.8z"/>
<path d="M5,13.2H3.7c-0.2,0-0.4,0.2-0.4,0.4c0,0.2,0.2,0.4,0.4,0.4H5c0.2,0,0.4-0.2,0.4-0.4C5.4,13.4,5.2,13.2,5,13.2z"/>
<path d="M9.3,5.8c-0.6,0-1.1,0.1-1.6,0.3C7.5,6.2,7.3,6.5,7.4,6.7C7.5,6.9,7.8,7,8,6.9c0.4-0.2,0.9-0.2,1.3-0.2c2,0,3.6,1.6,3.6,3.6
	c0,2-1.6,3.6-3.6,3.6c-2,0-3.6-1.6-3.6-3.6c0-1,0.4-2,1.2-2.7C7,7.4,7.1,7.2,6.9,7C6.7,6.8,6.5,6.8,6.3,7c-0.9,0.8-1.4,2-1.4,3.3
	c0,2.4,2,4.4,4.4,4.4c2.4,0,4.4-2,4.4-4.4C13.7,7.8,11.7,5.8,9.3,5.8z"/>
</svg>
