<svg id="Layer_1" data-name="Layer 1" xmlns="http://www.w3.org/2000/svg" width="18.38" height="25.87" viewBox="0 0 18.38 25.87"><defs><style>.cls-1{fill:#868686;}</style></defs><path class="cls-1" d="M9.5,26.46,9,25.86C8.68,25.42.31,15.63.31,9.78a9.19,9.19,0,0,1,18.38,0c0,5.85-8.37,15.7-8.7,16.08Zm0-24.61A7.88,7.88,0,0,0,1.63,9.73c0,4.59,6.07,12.41,7.87,14.65,1.8-2.24,7.88-10,7.88-14.65A7.88,7.88,0,0,0,9.5,1.85Z" transform="translate(-0.31 -0.59)"/><path class="cls-1" d="M9.5,12.68A3.5,3.5,0,1,1,13,9.18,3.53,3.53,0,0,1,9.5,12.68ZM9.5,7a2.19,2.19,0,1,0,2.19,2.19A2.2,2.2,0,0,0,9.5,7Z" transform="translate(-0.31 -0.59)"/></svg>