<?xml version="1.0" encoding="utf-8"?>
<!-- Generator: Adobe Illustrator 23.1.0, SVG Export Plug-In . SVG Version: 6.00 Build 0)  -->
<svg version="1.1" id="Слой_1" xmlns="http://www.w3.org/2000/svg" xmlns:xlink="http://www.w3.org/1999/xlink" x="0px" y="0px"
	 viewBox="0 0 14 18" style="enable-background:new 0 0 14 18;" xml:space="preserve">
<style type="text/css">
	.st0{fill:#656464;}
</style>
<path class="st0" d="M11.4,7.3V5c0-1.2-0.4-2.4-1.3-3.2C9.3,0.8,8.2,0.3,7,0.3c-1.2,0-2.3,0.5-3.2,1.4C3,2.6,2.5,3.8,2.6,5v2.4H0.9
	v9.4c0,0.3,0.1,0.6,0.3,0.8c0.2,0.2,0.5,0.3,0.8,0.3h10c0.3,0,0.6-0.1,0.8-0.3c0.2-0.2,0.3-0.5,0.3-0.8V7.3H11.4z M3.7,5
	C3.6,4,4,3.2,4.6,2.5C5.2,1.8,6.1,1.5,7,1.4c0.9,0,1.8,0.4,2.4,1.1C10,3.2,10.4,4,10.3,5v2.4H3.7V5z M2,16.8V8.4h10v8.3H2z"/>
<path class="st0" d="M7.1,9.5c-0.4,0-0.9,0.2-1.2,0.4c-0.3,0.3-0.6,0.6-0.7,1.1c-0.1,0.4-0.1,0.9,0.1,1.3c0.2,0.4,0.5,0.7,0.9,0.9
	v2.3h1.6v-2.2c0.4-0.2,0.8-0.5,1-0.9C9,12,9.1,11.6,9,11.1c-0.1-0.4-0.3-0.8-0.7-1.1C7.9,9.7,7.5,9.5,7.1,9.5z"/>
</svg>
