<svg id="Layer_1" data-name="Layer 1" xmlns="http://www.w3.org/2000/svg" width="26.2" height="20.02" viewBox="0 0 26.2 20.02"><defs><style>.cls-1{fill:#868686;}</style></defs><path class="cls-1" d="M24.3,20.51H2.7a2.31,2.31,0,0,1-2.3-2.3V2.79A2.31,2.31,0,0,1,2.7.49H24.3a2.31,2.31,0,0,1,2.3,2.3V18.21A2.31,2.31,0,0,1,24.3,20.51ZM2.64,2a.75.75,0,0,0-.76.76V18.16a.75.75,0,0,0,.76.76H24.25a.75.75,0,0,0,.76-.76V2.73A.75.75,0,0,0,24.25,2Z" transform="translate(-0.4 -0.49)"/><path class="cls-1" d="M26.38,3.31l-1-1-9.63,9.62a3.14,3.14,0,0,1-4.42,0L1.66,2.32l-1,1,7.17,7.17L.62,17.69l1,1,7.16-7.16L10.25,13a4.48,4.48,0,0,0,6.45,0l1.42-1.42,7.17,7.16,1-1-7.16-7.16Z" transform="translate(-0.4 -0.49)"/></svg>