<svg width="16" height="16" viewBox="0 0 16 16" fill="none" xmlns="http://www.w3.org/2000/svg">
<path d="M8.09389 15.7666C11.6967 15.7666 14.8306 13.3645 15.7143 9.92561C15.7774 9.6809 15.681 9.42283 15.4719 9.27699C15.2628 9.13116 14.9844 9.12696 14.771 9.26669C13.9508 9.80421 12.9943 10.0882 12.0046 10.0882C9.24475 10.0882 6.99956 7.87477 6.99956 5.15394C6.99956 3.6811 7.6598 2.29644 8.81066 1.35463C9.00776 1.19352 9.08366 0.929344 9.00234 0.689978C8.92102 0.450612 8.69836 0.28569 8.44279 0.274237C8.32778 0.269274 8.21044 0.266602 8.09427 0.266602C3.75995 0.266602 0.233398 3.74333 0.233398 8.01641C0.233398 12.2895 3.75956 15.7666 8.09389 15.7666ZM6.90933 1.59323C6.16778 2.62285 5.76002 3.86129 5.76002 5.15394C5.76002 8.54859 8.56128 11.3099 12.0042 11.3099C12.6865 11.3099 13.3564 11.2015 13.9919 10.9911C12.8809 13.1385 10.6249 14.545 8.09389 14.545C4.44265 14.545 1.47216 11.6164 1.47216 8.01679C1.47216 4.8157 3.82113 2.14526 6.90933 1.59323Z" fill="#333333"/>
</svg>
