<svg id="Layer_1" data-name="Layer 1" xmlns="http://www.w3.org/2000/svg" width="22.12" height="17.01" viewBox="0 0 22.12 17.01"><defs><style>.cls-1{fill:#0a0909;}</style></defs><path class="cls-1" d="M18.88,17H3.23a2,2,0,0,1-1.94-1.94V4h1.3V15.07a.62.62,0,0,0,.64.64H18.88a.63.63,0,0,0,.65-.64V4h1.29V15.07A1.89,1.89,0,0,1,18.88,17Z" transform="translate(0 0.01)"/><path class="cls-1" d="M20.82.1A2.26,2.26,0,0,0,20.18,0H1.94A2.27,2.27,0,0,0,1.29.1,2,2,0,0,0,0,1.94V3.28A2,2,0,0,0,1.29,5.1a2,2,0,0,0,.65.11H20.18a1.94,1.94,0,0,0,1.94-1.93V1.94A2,2,0,0,0,20.82.1Zm0,3.18a.62.62,0,0,1-.64.64H1.94a.63.63,0,0,1-.65-.64V1.94a.63.63,0,0,1,.65-.65H20.18a.62.62,0,0,1,.64.65Z" transform="translate(0 0.01)"/><path class="cls-1" d="M13.67,10H8.45a.65.65,0,0,1,0-1.3h5.22a.65.65,0,0,1,0,1.3Z" transform="translate(0 0.01)"/></svg>