<svg width="17" height="6" viewBox="0 0 17 6" fill="none" xmlns="http://www.w3.org/2000/svg">
<path fill-rule="evenodd" clip-rule="evenodd" d="M2.43517 0.416365C1.40993 1.62038 0.426929 3.11346 0.417072 4.22948C0.413233 4.64939 0.547289 5.01597 0.868835 5.29363C1.3316 5.69351 1.84146 5.83452 2.34884 5.83535C3.0903 5.83639 3.82656 5.53725 4.40304 5.3066C5.37391 4.91833 16.1059 0.257822 16.1059 0.257822C16.2095 0.205943 16.1901 0.141302 16.0605 0.173571C16.0082 0.186644 4.377 3.33872 4.377 3.33872C4.15668 3.40103 3.92903 3.43362 3.70008 3.43563C2.80621 3.44092 2.0108 2.94475 2.01723 1.89917C2.01972 1.49006 2.14496 0.996685 2.43517 0.416365Z" fill="black"/>
</svg>
