<?xml version="1.0" encoding="utf-8"?>
<!-- Generator: Adobe Illustrator 23.1.0, SVG Export Plug-In . SVG Version: 6.00 Build 0)  -->
<svg version="1.1" id="Слой_1" xmlns="http://www.w3.org/2000/svg" xmlns:xlink="http://www.w3.org/1999/xlink" x="0px" y="0px"
	 viewBox="0 0 16 16" style="enable-background:new 0 0 16 16;" xml:space="preserve">
<style type="text/css">
	.st0{fill:#FFFFFF;}
</style>
<path class="st0" d="M3.5,7c1.2,2.4,3.1,4.3,5.5,5.5l1.8-1.8c0.2-0.2,0.6-0.3,0.8-0.2c0.9,0.3,1.9,0.5,3,0.5c0.5,0,0.8,0.4,0.8,0.8
	v2.9c0,0.5-0.4,0.8-0.8,0.8C6.8,15.5,0.5,9.2,0.5,1.3c0-0.5,0.4-0.8,0.8-0.8h2.9c0.5,0,0.8,0.4,0.8,0.8c0,1,0.2,2,0.5,3
	c0.1,0.3,0,0.6-0.2,0.8L3.5,7z"/>
</svg>
