<svg id="Layer_1" data-name="Layer 1" xmlns="http://www.w3.org/2000/svg" width="26.2" height="16.95" viewBox="0 0 26.2 16.95"><defs><style>.cls-1{fill:#868686;}</style></defs><path class="cls-1" d="M13.1,17C4.24,17,.25,9.13.08,8.8a.68.68,0,0,1,0-.65C.25,7.82,4.24,0,13.1,0S26,7.82,26.11,8.15a.68.68,0,0,1,0,.65C26,9.19,22,17,13.1,17ZM1.56,8.53c.82,1.42,4.59,7,11.54,7s10.72-5.58,11.54-7c-.82-1.42-4.6-7-11.54-7S2.38,7.11,1.56,8.53Z"/><path class="cls-1" d="M13.1,15.37A6.89,6.89,0,1,1,20,8.48,6.9,6.9,0,0,1,13.1,15.37ZM13.1,3a5.47,5.47,0,1,0,5.47,5.47A5.48,5.48,0,0,0,13.1,3Z"/></svg>