<svg width="29" height="29" viewBox="0 0 29 29" fill="none" xmlns="http://www.w3.org/2000/svg">
<path d="M14.5 0C6.49238 0 0 6.49238 0 14.5C0 22.5076 6.49238 29 14.5 29C22.5076 29 29 22.5076 29 14.5C29 6.49238 22.5076 0 14.5 0ZM22.9583 6.07943L22.9182 6.11955C22.8795 10.9275 19.32 15.7216 16.9167 18.125C16.9167 20.5417 15.7083 24.1667 13.2917 25.375V19.3333L10.875 20.5417L8.49609 18.125L9.70443 15.7083H3.66276C4.87109 13.2917 8.49609 12.0833 10.9128 12.0833C13.3173 9.67996 18.1115 6.12045 22.9182 6.08179H22.9206C22.9339 6.08058 22.945 6.07943 22.9583 6.07943ZM18.125 9.66667C17.8045 9.66667 17.4972 9.79397 17.2706 10.0206C17.044 10.2472 16.9167 10.5545 16.9167 10.875C16.9167 11.1955 17.044 11.5028 17.2706 11.7294C17.4972 11.956 17.8045 12.0833 18.125 12.0833C18.4455 12.0833 18.7528 11.956 18.9794 11.7294C19.206 11.5028 19.3333 11.1955 19.3333 10.875C19.3333 10.5545 19.206 10.2472 18.9794 10.0206C18.7528 9.79397 18.4455 9.66667 18.125 9.66667ZM7.96509 18.8401L8.19637 19.0714C8.19637 19.0714 7.48836 19.9374 7.48836 21.5022V21.5164L7.50016 21.5187C9.06495 21.5187 9.93099 20.8107 9.93099 20.8107L10.1599 21.0396C10.1599 21.0396 9.41522 22.9559 6.04639 22.9583H6.04167L6.04875 22.9536C6.05116 19.5836 7.96509 18.8401 7.96509 18.8401Z" fill="#FFEA00"/>
</svg>
