<svg width="28" height="28" viewBox="0 0 28 28" fill="none" xmlns="http://www.w3.org/2000/svg">
<path d="M26.8532 25.5218L20.7594 19.428H20.6938C22.5721 17.2134 23.5212 14.3583 23.3427 11.4599C23.1643 8.56158 21.872 5.84449 19.7362 3.87705C17.6005 1.9096 14.7867 0.84421 11.8834 0.903734C8.98017 0.963257 6.2124 2.14309 4.15907 4.19642C2.10573 6.24975 0.925904 9.01752 0.86638 11.9208C0.806856 14.824 1.87225 17.6378 3.83969 19.7736C5.80714 21.9093 8.52423 23.2016 11.4226 23.3801C14.321 23.5586 17.1761 22.6094 19.3907 20.7312C19.3907 20.7312 19.3907 20.778 19.3907 20.7968L25.4844 26.8905C25.5716 26.9784 25.6753 27.0481 25.7895 27.0957C25.9038 27.1433 26.0263 27.1678 26.1501 27.1678C26.2738 27.1678 26.3963 27.1433 26.5106 27.0957C26.6248 27.0481 26.7285 26.9784 26.8157 26.8905C26.9118 26.8054 26.9894 26.7015 27.0437 26.5852C27.098 26.4689 27.1278 26.3426 27.1314 26.2143C27.1349 26.086 27.112 25.9583 27.0641 25.8392C27.0163 25.72 26.9445 25.612 26.8532 25.5218ZM12.1251 21.4999C10.2709 21.4999 8.45829 20.9501 6.91658 19.9199C5.37487 18.8898 4.17325 17.4256 3.46368 15.7126C2.75411 13.9995 2.56845 12.1145 2.93019 10.2959C3.29193 8.47736 4.18481 6.8069 5.49593 5.49578C6.80704 4.18466 8.47751 3.29178 10.2961 2.93004C12.1147 2.56831 13.9997 2.75396 15.7127 3.46353C17.4258 4.17311 18.8899 5.37472 19.9201 6.91643C20.9502 8.45815 21.5001 10.2707 21.5001 12.1249C21.5001 13.356 21.2576 14.5751 20.7864 15.7126C20.3153 16.85 19.6247 17.8835 18.7542 18.754C17.8836 19.6246 16.8501 20.3151 15.7127 20.7863C14.5753 21.2574 13.3562 21.4999 12.1251 21.4999Z" fill="black"/>
</svg>
