<?xml version="1.0" encoding="utf-8"?>
<!-- Generator: Adobe Illustrator 23.1.0, SVG Export Plug-In . SVG Version: 6.00 Build 0)  -->
<svg version="1.1" id="Слой_1" xmlns="http://www.w3.org/2000/svg" xmlns:xlink="http://www.w3.org/1999/xlink" x="0px" y="0px"
	 viewBox="0 0 14 16" style="enable-background:new 0 0 14 16;" xml:space="preserve">
<style type="text/css">
	.st0{fill:#222222;}
</style>
<path class="st0" d="M13.4,3.3L7,0.6L0.6,3.3v0.4c-0.1,1.5,0,3.1,0.1,4.5l0.1,0.5v0.3l0.1,0.5c0.2,1.2,0.8,2.3,1.8,3.1l0.3,0.2
	c1.5,1.3,2.9,2.1,3.9,2.5L7,15.4l0.2-0.1c1.1-0.4,2.5-1.3,4.1-2.6c0.9-0.7,1.5-1.7,1.7-2.7l0.1-0.3c0.1-0.5,0.1-0.9,0.2-1.3
	c0.1-1.1,0.2-2.5,0.1-4.1V3.3z M7,2.1l5.1,2.1v0.3c0,1.4-0.1,2.6-0.1,3.6c-0.1,0.5-0.1,0.9-0.2,1.3l-0.1,0.3c-0.2,0.8-0.6,1.5-1.3,2
	l-0.3,0.2c-1.3,1-2.3,1.7-3.1,2.1H6.9c-0.8-0.3-1.9-1.1-3.2-2.1l-0.3-0.2c-0.7-0.6-1.2-1.4-1.3-2.3L2.1,8.8V8.6L2,8.1L1.9,7.6
	c0-1.1-0.1-2.1-0.1-3.3V4.2L7,2.1z"/>
<path class="st0" d="M7.1,10.2L4,7.6l0.9-1L7,8.4l2.7-3.2L10.7,6L7.1,10.2z"/>
</svg>
