<svg width="24" height="23" viewBox="0 0 24 23" fill="none" xmlns="http://www.w3.org/2000/svg">
<path d="M1.29748 11.1806V22.1535H6.61546V15.2376H10.4686V22.1535H22.7025V11.1805C23.4953 10.5142 24 9.51577 24 8.40159V5.13972L20.8158 0H3.27966L0 5.1334V8.40159C0 9.5158 0.504764 10.5142 1.29748 11.1806ZM7.01253 1.67958L5.58009 5.40006V7.58621V8.40159C5.58009 8.71182 5.50693 9.00513 5.3775 9.26579C5.05829 9.90872 4.39497 10.3519 3.62982 10.3519C3.40093 10.3519 3.18128 10.3119 2.97704 10.2391C2.22179 9.97 1.67956 9.24808 1.67956 8.40162V7.58623V5.62416L4.1997 1.67961H7.01253V1.67958ZM11.1602 1.67958V7.58623V8.40162C11.1602 8.71185 11.087 9.00516 10.9576 9.26581C10.6384 9.90875 9.97509 10.3519 9.20994 10.3519C8.44479 10.3519 7.78148 9.90875 7.46226 9.26581C7.33284 9.00516 7.25967 8.71182 7.25967 8.40162V7.58623V5.71224L8.8123 1.67961L11.1602 1.67958ZM15.1877 1.67958L16.7403 5.71224V7.58623V8.40162C16.7403 8.71185 16.6672 9.00516 16.5377 9.26581C16.2185 9.90875 15.5552 10.3519 14.7901 10.3519C14.0249 10.3519 13.3616 9.90875 13.0424 9.26581C12.913 9.00516 12.8398 8.71182 12.8398 8.40162V7.58623V1.67958H15.1877ZM19.8806 1.67958L22.3204 5.61783V7.58623V8.40162C22.3204 9.24808 21.7782 9.97003 21.023 10.2391C20.8187 10.3119 20.5991 10.3519 20.3701 10.3519C19.605 10.3519 18.9417 9.90875 18.6225 9.26581C18.4931 9.00516 18.4199 8.71182 18.4199 8.40162V7.58623V5.40008L16.9875 1.67963H19.8806V1.67958ZM21.023 20.474H12.1482V13.558H4.93587V20.474H2.97706V11.9725C3.18889 12.0111 3.40703 12.0315 3.62985 12.0315C4.75021 12.0315 5.75353 11.5214 6.41991 10.7211C7.08628 11.5213 8.08961 12.0315 9.20994 12.0315C10.3303 12.0315 11.3336 11.5214 12 10.7211C12.6664 11.5213 13.6697 12.0315 14.7901 12.0315C15.9104 12.0315 16.9137 11.5214 17.5801 10.7211C18.2465 11.5213 19.2498 12.0315 20.3701 12.0315C20.593 12.0315 20.8111 12.0112 21.023 11.9725V20.474Z" fill="black"/>
</svg>
