<?xml version="1.0" encoding="utf-8"?>
<!-- Generator: Adobe Illustrator 23.0.1, SVG Export Plug-In . SVG Version: 6.00 Build 0)  -->
<svg version="1.1" id="Слой_1" xmlns="http://www.w3.org/2000/svg" xmlns:xlink="http://www.w3.org/1999/xlink" x="0px" y="0px"
	 viewBox="0 0 52.3 9" style="enable-background:new 0 0 52.3 9;" xml:space="preserve">
<style type="text/css">
	.st0{fill-rule:evenodd;clip-rule:evenodd;fill:#EEA734;}
</style>
<path class="st0" d="M4.4,7.2L2.2,8.3C2,8.4,1.7,8.3,1.5,8.1c0-0.1,0-0.3,0-0.4l0.4-2.4L0.2,3.7C0,3.5-0.1,3.1,0.1,2.9
	c0.1-0.1,0.2-0.1,0.3-0.2l2.4-0.3l1.1-2.2C4,0,4.3-0.1,4.6,0.1c0.1,0.1,0.2,0.1,0.2,0.2l1.1,2.2l2.4,0.3c0.3,0,0.5,0.3,0.4,0.6
	c0,0.1-0.1,0.2-0.2,0.3L6.8,5.4l0.4,2.4c0,0.3-0.1,0.6-0.4,0.6c-0.1,0-0.2,0-0.3-0.1L4.4,7.2z"/>
<path class="st0" d="M15.7,7.2l-2.1,1.1c-0.3,0.1-0.6,0-0.7-0.2c-0.1-0.1-0.1-0.2-0.1-0.3l0.5-2.4l-1.8-1.7c-0.2-0.2-0.2-0.6,0-0.8
	c0.1-0.1,0.2-0.1,0.3-0.2l2.4-0.3l1.1-2.1C15.4,0,15.7-0.1,16,0.1c0.1,0.1,0.2,0.1,0.2,0.2l1.1,2.1l2.4,0.3c0.3,0,0.5,0.3,0.4,0.6
	c0,0.1-0.1,0.2-0.2,0.3l-1.7,1.7l0.4,2.4c0,0.3-0.1,0.6-0.4,0.6c-0.1,0-0.2,0-0.3-0.1L15.7,7.2z"/>
<path class="st0" d="M37.2,7.2l-2.1,1.1c-0.3,0.1-0.6,0-0.7-0.2c-0.1-0.1-0.1-0.2-0.1-0.3l0.4-2.4L33,3.7c-0.2-0.2-0.2-0.5,0-0.7
	c0.1-0.1,0.2-0.1,0.3-0.2l2.4-0.3l1.1-2.2c0.1-0.3,0.4-0.4,0.7-0.2c0.1,0.1,0.2,0.1,0.2,0.2l1.1,2.2l2.4,0.3c0.3,0,0.5,0.3,0.4,0.6
	c0,0.1-0.1,0.2-0.2,0.3l-1.7,1.7l0.4,2.4c0,0.3-0.1,0.6-0.4,0.6c-0.1,0-0.2,0-0.3-0.1L37.2,7.2z"/>
<path class="st0" d="M26.6,7.2l-2.1,1.1c-0.3,0.1-0.6,0-0.7-0.2c-0.1-0.1-0.1-0.2-0.1-0.3l0.4-2.4l-1.7-1.7c-0.2-0.2-0.2-0.5,0-0.7
	c0.1-0.1,0.2-0.1,0.3-0.2l2.4-0.4l1.1-2.2c0.1-0.3,0.4-0.4,0.7-0.2c0.1,0.1,0.2,0.1,0.2,0.2l1,2.2l2.4,0.3c0.3,0,0.5,0.3,0.4,0.6
	c0,0.1-0.1,0.2-0.2,0.3l-1.6,1.8l0.4,2.4c0,0.3-0.1,0.6-0.4,0.6c-0.1,0-0.2,0-0.3-0.1L26.6,7.2z"/>
<path class="st0" d="M47.9,7.2l-2.1,1.1c-0.3,0.1-0.6,0-0.7-0.2C45,8,45,7.9,45,7.8l0.4-2.4l-1.7-1.7c-0.2-0.2-0.2-0.5,0-0.7
	c0.1-0.1,0.2-0.1,0.3-0.2l2.4-0.3l1.1-2.2c0.1-0.3,0.4-0.4,0.7-0.2c0.1,0.1,0.2,0.1,0.2,0.2l1.1,2.2l2.4,0.3c0.3,0,0.5,0.3,0.4,0.6
	c0,0.1-0.1,0.2-0.2,0.3l-1.7,1.7l0.4,2.4c0,0.3-0.1,0.6-0.4,0.6c-0.1,0-0.2,0-0.3-0.1L47.9,7.2z"/>
</svg>
