<?xml version="1.0" encoding="utf-8"?>
<!-- Generator: Adobe Illustrator 23.1.0, SVG Export Plug-In . SVG Version: 6.00 Build 0)  -->
<svg version="1.1" id="Слой_1" xmlns="http://www.w3.org/2000/svg" xmlns:xlink="http://www.w3.org/1999/xlink" x="0px" y="0px"
	 viewBox="0 0 15 16" style="enable-background:new 0 0 15 16;" xml:space="preserve">
<style type="text/css">
	.st0{fill:#FFFFFF;}
</style>
<path class="st0" d="M8,0.5h2.9c0,0-0.2,3.3,4.1,3.5v2.5c0,0-2.3,0.1-4.1-1.1l0,5.3c0,0.9-0.3,1.9-0.9,2.6c-0.6,0.8-1.5,1.4-2.5,1.8
	c-1,0.4-2.1,0.5-3.2,0.3c-1.1-0.2-2-0.6-2.8-1.3c-0.8-0.7-1.3-1.5-1.5-2.4C-0.1,10.8,0,9.8,0.4,8.9s1.1-1.6,2-2.1
	c0.9-0.5,2-0.8,3-0.8h0.8v2.6v0.1c-0.5-0.1-1-0.1-1.5,0S3.8,9,3.5,9.4C3.2,9.8,3,10.2,3,10.7c0,0.5,0.2,0.9,0.5,1.3
	c0.3,0.4,0.7,0.6,1.2,0.8c0.5,0.1,1,0.1,1.5,0c0.5-0.1,0.9-0.4,1.2-0.8C7.8,11.6,8,11.1,8,10.7L8,0.5z"/>
</svg>
