<?xml version="1.0" encoding="utf-8"?>
<!-- Generator: Adobe Illustrator 23.0.1, SVG Export Plug-In . SVG Version: 6.00 Build 0)  -->
<svg version="1.1" id="Слой_1" xmlns="http://www.w3.org/2000/svg" xmlns:xlink="http://www.w3.org/1999/xlink" x="0px" y="0px"
	 viewBox="0 0 27 27" style="enable-background:new 0 0 27 27;" xml:space="preserve">
<style type="text/css">
	.st0{fill:#333333;}
</style>
<path class="st0" d="M13.5,0.5c-2.6,0-5.1,0.8-7.2,2.2C4.2,4.1,2.5,6.2,1.5,8.5c-1,2.4-1.2,5-0.7,7.5c0.5,2.5,1.7,4.8,3.5,6.6
	c1.8,1.8,4.1,3,6.6,3.5c2.5,0.5,5.1,0.2,7.5-0.7c2.4-1,4.4-2.6,5.8-4.8c1.4-2.1,2.2-4.6,2.2-7.2c0-3.4-1.4-6.7-3.8-9.2
	C20.2,1.9,16.9,0.5,13.5,0.5z M13.5,25.4c-2.3,0-4.6-0.7-6.6-2c-2-1.3-3.5-3.2-4.4-5.3s-1.1-4.6-0.7-6.9c0.5-2.3,1.6-4.4,3.3-6.1
	c1.7-1.7,3.8-2.8,6.1-3.3c2.3-0.5,4.7-0.2,6.9,0.7s4,2.4,5.3,4.4c1.3,2,2,4.3,2,6.6c0,3.2-1.3,6.2-3.5,8.4
	C19.7,24.1,16.7,25.4,13.5,25.4z"/>
<path class="st0" d="M13.5,12.7c0.5,0,1-0.1,1.4-0.3c0.5-0.2,0.9-0.5,1.2-0.9c0.3-0.4,0.6-0.8,0.8-1.3s0.3-1,0.2-1.5
	c0-0.5-0.1-1-0.2-1.5c-0.2-0.5-0.4-0.9-0.8-1.3c-0.3-0.4-0.8-0.7-1.2-0.9C14.5,5.1,14,5,13.5,4.9c-0.5,0-1,0.1-1.4,0.3
	c-0.5,0.2-0.9,0.5-1.2,0.9c-0.3,0.4-0.6,0.8-0.8,1.3c-0.2,0.5-0.3,1-0.2,1.5c0,0.5,0.1,1,0.2,1.5c0.2,0.5,0.4,0.9,0.8,1.3
	c0.3,0.4,0.8,0.7,1.2,0.9C12.5,12.6,13,12.7,13.5,12.7z M13.5,6c0.4,0,0.7,0.1,1,0.2c0.3,0.1,0.6,0.4,0.9,0.6
	c0.2,0.3,0.4,0.6,0.6,0.9c0.1,0.3,0.2,0.7,0.2,1c0,0.4,0,0.7-0.2,1c-0.1,0.3-0.3,0.6-0.6,0.9c-0.2,0.3-0.5,0.5-0.9,0.6
	c-0.3,0.1-0.7,0.2-1,0.2c-0.4,0-0.7-0.1-1-0.2c-0.3-0.1-0.6-0.4-0.9-0.6c-0.2-0.3-0.4-0.6-0.6-0.9c-0.1-0.3-0.2-0.7-0.2-1
	c0-0.4,0-0.7,0.2-1c0.1-0.3,0.3-0.6,0.6-0.9c0.2-0.3,0.5-0.5,0.9-0.6C12.8,6.1,13.1,6,13.5,6z"/>
<path class="st0" d="M13.5,12.7c-1.9,0-3.6,0.7-5,2.1c-1.3,1.3-2.1,3.1-2.1,5c0,0.1,0.1,0.3,0.2,0.4c0.1,0.1,0.2,0.2,0.4,0.2
	c0.1,0,0.3-0.1,0.4-0.2c0.1-0.1,0.2-0.2,0.2-0.4c0-1.6,0.6-3.1,1.7-4.2c1.1-1.1,2.6-1.7,4.2-1.7s3.1,0.6,4.2,1.7s1.7,2.6,1.7,4.2
	c0,0.1,0.1,0.3,0.2,0.4c0.1,0.1,0.2,0.2,0.4,0.2c0.1,0,0.3-0.1,0.4-0.2c0.1-0.1,0.2-0.2,0.2-0.4c0-0.9-0.2-1.8-0.5-2.7
	c-0.4-0.9-0.9-1.6-1.5-2.3c-0.7-0.7-1.4-1.2-2.3-1.5C15.3,12.9,14.4,12.7,13.5,12.7z"/>
</svg>
