<svg width="16" height="16" viewBox="0 0 16 16" fill="none" xmlns="http://www.w3.org/2000/svg">
<path d="M10.1712 14.5952L10.5504 15.1593C9.92538 15.382 9.27619 15.521 8.61968 15.5747C9.19109 15.4257 9.71274 15.0805 10.1712 14.5952ZM8.61958 0.425278C9.28142 0.479388 9.92934 0.6197 10.5478 0.839775L10.1694 1.40289C9.71133 0.918564 9.19027 0.57401 8.61958 0.425278ZM5.44956 0.840722C6.07069 0.619452 6.71968 0.479341 7.38034 0.425299C6.80893 0.574239 6.28727 0.919502 5.82878 1.40482L5.44956 0.840722ZM6.51732 15.454C6.15357 15.3816 5.79713 15.283 5.45057 15.1596L5.82951 14.5959C6.28783 15.0809 6.80924 15.4258 7.38036 15.5747C7.09159 15.5511 6.80344 15.5109 6.51732 15.454Z" fill="black" stroke="black" stroke-width="0.8"/>
</svg>
