<?xml version="1.0" encoding="utf-8"?>
<!-- Generator: Adobe Illustrator 23.1.0, SVG Export Plug-In . SVG Version: 6.00 Build 0)  -->
<svg version="1.1" id="Слой_1" xmlns="http://www.w3.org/2000/svg" xmlns:xlink="http://www.w3.org/1999/xlink" x="0px" y="0px"
	 viewBox="0 0 20 14" style="enable-background:new 0 0 20 14;" xml:space="preserve">
<style type="text/css">
	.st0{fill:#FFFFFF;}
</style>
<path class="st0" d="M19.6,2.4c-0.1-1-1-1.9-2.1-1.9C11.4,0,8.4,0,2.4,0.4c-1,0.1-1.9,0.9-2,1.9c-0.5,3.7-0.5,5.6,0,9.3
	c0.1,1,1.1,1.9,2.1,1.9c3,0.2,5.3,0.3,7.6,0.3s4.6-0.1,7.6-0.3c1-0.1,1.9-0.9,2.1-1.9C20.1,7.9,20.1,6.1,19.6,2.4z M13.2,8.1
	l-3.8,2.5c-0.2,0.1-0.4,0.2-0.7,0.2c-0.2,0-0.4-0.1-0.6-0.1C7.8,10.4,7.5,10,7.5,9.5v-5c0-0.5,0.3-0.9,0.7-1.1s0.9-0.2,1.3,0.1
	l3.8,2.5c0.4,0.3,0.6,0.6,0.6,1.1S13.6,7.8,13.2,8.1z"/>
</svg>
