<?xml version="1.0" encoding="utf-8"?>
<!-- Generator: Adobe Illustrator 23.1.0, SVG Export Plug-In . SVG Version: 6.00 Build 0)  -->
<svg version="1.1" id="Слой_1" xmlns="http://www.w3.org/2000/svg" xmlns:xlink="http://www.w3.org/1999/xlink" x="0px" y="0px"
	 viewBox="0 0 29 34" style="enable-background:new 0 0 29 34;" xml:space="preserve">
<path d="M23.7,18c0,5.1,4.5,6.9,4.6,6.9c0,0.1-0.7,2.4-2.4,4.8c-1.4,2.1-2.9,4.1-5.2,4.2c-2.3,0-3-1.3-5.6-1.3s-3.4,1.3-5.6,1.4
	c-2.2,0.1-3.9-2.2-5.4-4.3c-2.9-4.2-5.2-11.9-2.2-17.1C3.4,10,6,8.4,8.9,8.3c2.2,0,4.3,1.5,5.6,1.5S18.4,8,21,8.2
	c1.1,0,4.2,0.4,6.2,3.4C27.2,11.6,23.7,13.7,23.7,18z M19.4,5.3c1.2-1.4,2-3.4,1.8-5.4c-1.7,0.1-3.8,1.1-5,2.6
	c-1.1,1.3-2.1,3.3-1.8,5.3C16.3,7.9,18.2,6.8,19.4,5.3z"/>
</svg>
