<?xml version="1.0" encoding="utf-8"?>
<!-- Generator: Adobe Illustrator 23.0.1, SVG Export Plug-In . SVG Version: 6.00 Build 0)  -->
<svg version="1.1" id="Слой_1" xmlns="http://www.w3.org/2000/svg" xmlns:xlink="http://www.w3.org/1999/xlink" x="0px" y="0px"
	 viewBox="0 0 39 14" style="enable-background:new 0 0 39 14;" xml:space="preserve">
<style type="text/css">
	.st0{fill-rule:evenodd;clip-rule:evenodd;}
</style>
<path class="st0" d="M5.6,0.8C3.2,3.7,0.8,7.3,0.8,10c0,1,0.3,1.9,1.1,2.6c1.1,1,2.3,1.3,3.6,1.3c1.8,0,3.5-0.7,4.9-1.3
	c2.3-0.9,28.1-12.1,28.1-12.1c0.2-0.1,0.2-0.3-0.1-0.2c-0.1,0-28,7.6-28,7.6C9.8,8,9.2,8,8.7,8c-2.1,0-4.1-1.2-4-3.7
	C4.6,3.4,4.9,2.2,5.6,0.8z"/>
</svg>
