<svg width="71" height="48" viewBox="0 0 71 48" fill="none" xmlns="http://www.w3.org/2000/svg">
<path d="M0.832 39V0.599999H4.672V35.592H13.552V39H0.832ZM24.3423 39.336C21.7503 39.336 19.9103 38.824 18.8223 37.8C17.7663 36.744 17.1903 35.016 17.0943 32.616C17.0303 31.304 16.9823 29.704 16.9503 27.816C16.9183 25.928 16.9023 23.992 16.9023 22.008C16.9343 19.992 16.9983 18.184 17.0943 16.584C17.1903 14.152 17.7663 12.424 18.8223 11.4C19.9103 10.376 21.7503 9.864 24.3423 9.864C26.9663 9.864 28.8063 10.392 29.8623 11.448C30.9183 12.472 31.4943 14.184 31.5903 16.584C31.6543 18.056 31.7023 19.736 31.7343 21.624C31.7663 23.48 31.7663 25.368 31.7343 27.288C31.7343 29.208 31.6863 30.984 31.5903 32.616C31.4943 35.016 30.9183 36.744 29.8623 37.8C28.8063 38.824 26.9663 39.336 24.3423 39.336ZM24.3423 36.408C25.6223 36.408 26.5023 36.168 26.9823 35.688C27.4943 35.208 27.7663 34.456 27.7983 33.432C27.8943 30.52 27.9423 27.608 27.9423 24.696C27.9743 21.784 27.9263 18.808 27.7983 15.768C27.7663 14.712 27.4943 13.96 26.9823 13.512C26.4703 13.032 25.5903 12.792 24.3423 12.792C23.1263 12.792 22.2463 13.032 21.7023 13.512C21.1903 13.992 20.9183 14.776 20.8863 15.864C20.7583 18.424 20.6943 21.24 20.6943 24.312C20.6943 27.384 20.7583 30.392 20.8863 33.336C20.9183 34.424 21.1903 35.208 21.7023 35.688C22.2463 36.168 23.1263 36.408 24.3423 36.408ZM44.1258 47.064C41.8538 47.064 40.0298 46.728 38.6538 46.056C37.2778 45.384 36.5258 44.36 36.3978 42.984C36.3978 42.824 36.3818 42.632 36.3498 42.408C36.3498 42.216 36.3658 42.024 36.3978 41.832C36.4298 40.936 36.7658 40.232 37.4058 39.72C38.0458 39.24 38.7818 38.936 39.6138 38.808V38.136C37.9818 37.688 37.1178 36.856 37.0218 35.64C37.0218 35.448 37.0218 35.288 37.0218 35.16C37.0218 35 37.0218 34.84 37.0218 34.68C37.0538 34.04 37.3098 33.48 37.7898 33C38.3018 32.52 38.9258 32.232 39.6618 32.136V31.464C38.6698 31.016 37.9498 30.344 37.5018 29.448C37.0538 28.52 36.7818 27.336 36.6858 25.896C36.6218 24.2 36.5898 22.6 36.5898 21.096C36.5898 19.592 36.6218 17.944 36.6858 16.152C36.8138 13.88 37.4218 12.264 38.5098 11.304C39.6298 10.312 41.4058 9.816 43.8378 9.816C45.5658 9.816 46.9258 10.056 47.9178 10.536C48.9418 10.984 49.6938 11.72 50.1738 12.744H50.7978C50.8938 11.944 51.2298 11.32 51.8058 10.872C52.3818 10.424 53.1338 10.2 54.0618 10.2V13.224H53.5338C52.7658 13.224 52.1418 13.496 51.6618 14.04C51.1818 14.584 50.9418 15.432 50.9418 16.584C51.0058 18.344 51.0378 19.976 51.0378 21.48C51.0378 22.984 50.9898 24.456 50.8938 25.896C50.7978 28.136 50.2058 29.752 49.1178 30.744C48.0618 31.704 46.3018 32.184 43.8378 32.184C43.7098 32.184 43.5818 32.184 43.4538 32.184C43.3258 32.184 43.2138 32.184 43.1178 32.184C42.0298 32.184 41.2618 32.36 40.8138 32.712C40.3658 33.032 40.1418 33.464 40.1418 34.008V34.296C40.1418 34.904 40.4778 35.304 41.1497 35.496C41.8538 35.688 42.9258 35.816 44.3658 35.88C46.8938 35.944 48.8138 36.344 50.1258 37.08C51.4698 37.816 52.2058 39.048 52.3338 40.776C52.3978 41.256 52.3978 41.736 52.3338 42.216C52.2058 44.104 51.3738 45.384 49.8378 46.056C48.3018 46.728 46.3978 47.064 44.1258 47.064ZM43.8378 29.208C44.8938 29.208 45.7098 29 46.2858 28.584C46.8618 28.136 47.1658 27.352 47.1978 26.232C47.2618 24.568 47.2938 22.904 47.2938 21.24C47.2938 19.576 47.2458 17.752 47.1498 15.768C47.1178 14.68 46.8458 13.928 46.3338 13.512C45.8218 13.064 44.9898 12.84 43.8378 12.84C42.6538 12.84 41.7898 13.064 41.2458 13.512C40.7018 13.96 40.4297 14.744 40.4297 15.864C40.3658 17.816 40.3178 19.608 40.2858 21.24C40.2858 22.872 40.3338 24.536 40.4297 26.232C40.4618 27.352 40.7658 28.136 41.3418 28.584C41.9178 29 42.7498 29.208 43.8378 29.208ZM44.2218 44.088C45.7258 44.088 46.8458 43.912 47.5818 43.56C48.3178 43.24 48.7658 42.696 48.9258 41.928C48.9898 41.576 48.9738 41.208 48.8778 40.824C48.7818 40.152 48.3498 39.656 47.5818 39.336C46.8458 39.016 45.7258 38.824 44.2218 38.76C42.7178 38.728 41.6298 38.872 40.9578 39.192C40.3178 39.544 39.9658 40.136 39.9018 40.968C39.8698 41.288 39.8698 41.64 39.9018 42.024C39.9658 42.792 40.3338 43.32 41.0058 43.608C41.6778 43.928 42.7498 44.088 44.2218 44.088ZM63.4829 39.336C60.8909 39.336 59.0509 38.824 57.9629 37.8C56.9069 36.744 56.3309 35.016 56.2349 32.616C56.1709 31.304 56.1229 29.704 56.0909 27.816C56.0589 25.928 56.0429 23.992 56.0429 22.008C56.0749 19.992 56.1389 18.184 56.2349 16.584C56.3309 14.152 56.9069 12.424 57.9629 11.4C59.0509 10.376 60.8909 9.864 63.4829 9.864C66.1069 9.864 67.9469 10.392 69.0029 11.448C70.0589 12.472 70.6349 14.184 70.7309 16.584C70.7949 18.056 70.8429 19.736 70.8749 21.624C70.9069 23.48 70.9069 25.368 70.8749 27.288C70.8749 29.208 70.8269 30.984 70.7309 32.616C70.6349 35.016 70.0589 36.744 69.0029 37.8C67.9469 38.824 66.1069 39.336 63.4829 39.336ZM63.4829 36.408C64.7629 36.408 65.6429 36.168 66.1229 35.688C66.6349 35.208 66.9069 34.456 66.9389 33.432C67.0349 30.52 67.0829 27.608 67.0829 24.696C67.1149 21.784 67.0669 18.808 66.9389 15.768C66.9069 14.712 66.6349 13.96 66.1229 13.512C65.6109 13.032 64.7309 12.792 63.4829 12.792C62.2669 12.792 61.3869 13.032 60.8429 13.512C60.3309 13.992 60.0589 14.776 60.0269 15.864C59.8989 18.424 59.8349 21.24 59.8349 24.312C59.8349 27.384 59.8989 30.392 60.0269 33.336C60.0589 34.424 60.3309 35.208 60.8429 35.688C61.3869 36.168 62.2669 36.408 63.4829 36.408Z" fill="black"/>
</svg>
